<mxfile host="app.diagrams.net" modified="2023-07-05T12:19:14.587Z" agent="Mozilla/5.0 (X11; Linux x86_64) AppleWebKit/537.36 (KHTML, like Gecko) Chrome/114.0.0.0 Safari/537.36" etag="chLeS8HS-OA7xIFR6f2z" version="21.5.2" type="github">
  <diagram name="PÃ¡gina-1" id="EvkeX1G1GPAdFAJ-fbaF">
    <mxGraphModel dx="1428" dy="745" grid="1" gridSize="10" guides="1" tooltips="1" connect="1" arrows="1" fold="1" page="1" pageScale="1" pageWidth="827" pageHeight="1169" math="0" shadow="0">
      <root>
        <mxCell id="0" />
        <mxCell id="1" parent="0" />
        <mxCell id="g6scmtSAy3s_X9ug3b2V-23" style="edgeStyle=orthogonalEdgeStyle;rounded=0;orthogonalLoop=1;jettySize=auto;html=1;exitX=1;exitY=0.5;exitDx=0;exitDy=0;" parent="1" source="g6scmtSAy3s_X9ug3b2V-8" target="g6scmtSAy3s_X9ug3b2V-11" edge="1">
          <mxGeometry relative="1" as="geometry">
            <Array as="points">
              <mxPoint x="400" y="60" />
              <mxPoint x="575" y="60" />
            </Array>
          </mxGeometry>
        </mxCell>
        <mxCell id="g6scmtSAy3s_X9ug3b2V-24" style="edgeStyle=orthogonalEdgeStyle;rounded=0;orthogonalLoop=1;jettySize=auto;html=1;exitX=0.5;exitY=1;exitDx=0;exitDy=0;" parent="1" source="g6scmtSAy3s_X9ug3b2V-8" target="g6scmtSAy3s_X9ug3b2V-10" edge="1">
          <mxGeometry relative="1" as="geometry" />
        </mxCell>
        <mxCell id="g6scmtSAy3s_X9ug3b2V-25" style="edgeStyle=orthogonalEdgeStyle;rounded=0;orthogonalLoop=1;jettySize=auto;html=1;exitX=0;exitY=0.75;exitDx=0;exitDy=0;" parent="1" target="g6scmtSAy3s_X9ug3b2V-9" edge="1">
          <mxGeometry relative="1" as="geometry">
            <mxPoint x="350" y="60" as="sourcePoint" />
            <mxPoint x="115" y="122.5" as="targetPoint" />
          </mxGeometry>
        </mxCell>
        <mxCell id="g6scmtSAy3s_X9ug3b2V-8" value="1" style="whiteSpace=wrap;html=1;aspect=fixed;fillColor=#f8cecc;strokeColor=#b85450;" parent="1" vertex="1">
          <mxGeometry x="350" y="30" width="50" height="50" as="geometry" />
        </mxCell>
        <mxCell id="g6scmtSAy3s_X9ug3b2V-26" style="edgeStyle=orthogonalEdgeStyle;rounded=0;orthogonalLoop=1;jettySize=auto;html=1;" parent="1" source="g6scmtSAy3s_X9ug3b2V-9" target="g6scmtSAy3s_X9ug3b2V-13" edge="1">
          <mxGeometry relative="1" as="geometry" />
        </mxCell>
        <mxCell id="g6scmtSAy3s_X9ug3b2V-27" style="edgeStyle=orthogonalEdgeStyle;rounded=0;orthogonalLoop=1;jettySize=auto;html=1;entryX=0.5;entryY=0;entryDx=0;entryDy=0;" parent="1" source="g6scmtSAy3s_X9ug3b2V-9" target="g6scmtSAy3s_X9ug3b2V-14" edge="1">
          <mxGeometry relative="1" as="geometry" />
        </mxCell>
        <mxCell id="g6scmtSAy3s_X9ug3b2V-28" style="edgeStyle=orthogonalEdgeStyle;rounded=0;orthogonalLoop=1;jettySize=auto;html=1;" parent="1" source="g6scmtSAy3s_X9ug3b2V-9" target="g6scmtSAy3s_X9ug3b2V-12" edge="1">
          <mxGeometry relative="1" as="geometry" />
        </mxCell>
        <mxCell id="g6scmtSAy3s_X9ug3b2V-9" value="4" style="whiteSpace=wrap;html=1;aspect=fixed;fillColor=#dae8fc;strokeColor=#6c8ebf;" parent="1" vertex="1">
          <mxGeometry x="160" y="130" width="50" height="50" as="geometry" />
        </mxCell>
        <mxCell id="g6scmtSAy3s_X9ug3b2V-32" style="edgeStyle=orthogonalEdgeStyle;rounded=0;orthogonalLoop=1;jettySize=auto;html=1;" parent="1" source="g6scmtSAy3s_X9ug3b2V-10" target="g6scmtSAy3s_X9ug3b2V-16" edge="1">
          <mxGeometry relative="1" as="geometry" />
        </mxCell>
        <mxCell id="g6scmtSAy3s_X9ug3b2V-33" style="edgeStyle=orthogonalEdgeStyle;rounded=0;orthogonalLoop=1;jettySize=auto;html=1;" parent="1" source="g6scmtSAy3s_X9ug3b2V-10" target="g6scmtSAy3s_X9ug3b2V-15" edge="1">
          <mxGeometry relative="1" as="geometry" />
        </mxCell>
        <mxCell id="g6scmtSAy3s_X9ug3b2V-34" style="edgeStyle=orthogonalEdgeStyle;rounded=0;orthogonalLoop=1;jettySize=auto;html=1;" parent="1" source="g6scmtSAy3s_X9ug3b2V-10" target="g6scmtSAy3s_X9ug3b2V-17" edge="1">
          <mxGeometry relative="1" as="geometry" />
        </mxCell>
        <mxCell id="g6scmtSAy3s_X9ug3b2V-10" value="3" style="whiteSpace=wrap;html=1;aspect=fixed;fillColor=#dae8fc;strokeColor=#6c8ebf;" parent="1" vertex="1">
          <mxGeometry x="350" y="130" width="50" height="50" as="geometry" />
        </mxCell>
        <mxCell id="g6scmtSAy3s_X9ug3b2V-29" style="edgeStyle=orthogonalEdgeStyle;rounded=0;orthogonalLoop=1;jettySize=auto;html=1;" parent="1" source="g6scmtSAy3s_X9ug3b2V-11" target="g6scmtSAy3s_X9ug3b2V-20" edge="1">
          <mxGeometry relative="1" as="geometry" />
        </mxCell>
        <mxCell id="g6scmtSAy3s_X9ug3b2V-30" style="edgeStyle=orthogonalEdgeStyle;rounded=0;orthogonalLoop=1;jettySize=auto;html=1;" parent="1" source="g6scmtSAy3s_X9ug3b2V-11" target="g6scmtSAy3s_X9ug3b2V-19" edge="1">
          <mxGeometry relative="1" as="geometry" />
        </mxCell>
        <mxCell id="g6scmtSAy3s_X9ug3b2V-31" style="edgeStyle=orthogonalEdgeStyle;rounded=0;orthogonalLoop=1;jettySize=auto;html=1;" parent="1" source="g6scmtSAy3s_X9ug3b2V-11" target="g6scmtSAy3s_X9ug3b2V-18" edge="1">
          <mxGeometry relative="1" as="geometry" />
        </mxCell>
        <mxCell id="g6scmtSAy3s_X9ug3b2V-11" value="2" style="whiteSpace=wrap;html=1;aspect=fixed;fillColor=#dae8fc;strokeColor=#6c8ebf;" parent="1" vertex="1">
          <mxGeometry x="550" y="130" width="50" height="50" as="geometry" />
        </mxCell>
        <mxCell id="g6scmtSAy3s_X9ug3b2V-12" value="13" style="whiteSpace=wrap;html=1;aspect=fixed;" parent="1" vertex="1">
          <mxGeometry x="100" y="260" width="50" height="50" as="geometry" />
        </mxCell>
        <mxCell id="g6scmtSAy3s_X9ug3b2V-13" value="12" style="whiteSpace=wrap;html=1;aspect=fixed;" parent="1" vertex="1">
          <mxGeometry x="160" y="260" width="50" height="50" as="geometry" />
        </mxCell>
        <mxCell id="g6scmtSAy3s_X9ug3b2V-14" value="11" style="whiteSpace=wrap;html=1;aspect=fixed;" parent="1" vertex="1">
          <mxGeometry x="220" y="260" width="50" height="50" as="geometry" />
        </mxCell>
        <mxCell id="g6scmtSAy3s_X9ug3b2V-15" value="10" style="whiteSpace=wrap;html=1;aspect=fixed;" parent="1" vertex="1">
          <mxGeometry x="290" y="260" width="50" height="50" as="geometry" />
        </mxCell>
        <mxCell id="iukpTpg_DZpBxqqb1P64-4" style="edgeStyle=orthogonalEdgeStyle;rounded=0;orthogonalLoop=1;jettySize=auto;html=1;entryX=0.5;entryY=0;entryDx=0;entryDy=0;" edge="1" parent="1" source="g6scmtSAy3s_X9ug3b2V-16" target="iukpTpg_DZpBxqqb1P64-2">
          <mxGeometry relative="1" as="geometry" />
        </mxCell>
        <mxCell id="iukpTpg_DZpBxqqb1P64-5" style="edgeStyle=orthogonalEdgeStyle;rounded=0;orthogonalLoop=1;jettySize=auto;html=1;" edge="1" parent="1" source="g6scmtSAy3s_X9ug3b2V-16" target="iukpTpg_DZpBxqqb1P64-1">
          <mxGeometry relative="1" as="geometry" />
        </mxCell>
        <mxCell id="iukpTpg_DZpBxqqb1P64-6" style="edgeStyle=orthogonalEdgeStyle;rounded=0;orthogonalLoop=1;jettySize=auto;html=1;" edge="1" parent="1" source="g6scmtSAy3s_X9ug3b2V-16" target="iukpTpg_DZpBxqqb1P64-3">
          <mxGeometry relative="1" as="geometry" />
        </mxCell>
        <mxCell id="g6scmtSAy3s_X9ug3b2V-16" value="9" style="whiteSpace=wrap;html=1;aspect=fixed;" parent="1" vertex="1">
          <mxGeometry x="350" y="330" width="50" height="50" as="geometry" />
        </mxCell>
        <mxCell id="g6scmtSAy3s_X9ug3b2V-17" value="8" style="whiteSpace=wrap;html=1;aspect=fixed;" parent="1" vertex="1">
          <mxGeometry x="414" y="260" width="50" height="50" as="geometry" />
        </mxCell>
        <mxCell id="g6scmtSAy3s_X9ug3b2V-18" value="7" style="whiteSpace=wrap;html=1;aspect=fixed;fillColor=#d5e8d4;strokeColor=#82b366;" parent="1" vertex="1">
          <mxGeometry x="480" y="260" width="50" height="50" as="geometry" />
        </mxCell>
        <mxCell id="g6scmtSAy3s_X9ug3b2V-19" value="6" style="whiteSpace=wrap;html=1;aspect=fixed;fillColor=#d5e8d4;strokeColor=#82b366;" parent="1" vertex="1">
          <mxGeometry x="550" y="260" width="50" height="50" as="geometry" />
        </mxCell>
        <mxCell id="g6scmtSAy3s_X9ug3b2V-20" value="5" style="whiteSpace=wrap;html=1;aspect=fixed;fillColor=#d5e8d4;strokeColor=#82b366;" parent="1" vertex="1">
          <mxGeometry x="620" y="260" width="50" height="50" as="geometry" />
        </mxCell>
        <mxCell id="iukpTpg_DZpBxqqb1P64-1" value="16" style="whiteSpace=wrap;html=1;aspect=fixed;" vertex="1" parent="1">
          <mxGeometry x="290" y="430" width="50" height="50" as="geometry" />
        </mxCell>
        <mxCell id="iukpTpg_DZpBxqqb1P64-10" style="edgeStyle=orthogonalEdgeStyle;rounded=0;orthogonalLoop=1;jettySize=auto;html=1;" edge="1" parent="1" source="iukpTpg_DZpBxqqb1P64-2" target="iukpTpg_DZpBxqqb1P64-7">
          <mxGeometry relative="1" as="geometry" />
        </mxCell>
        <mxCell id="iukpTpg_DZpBxqqb1P64-11" style="edgeStyle=orthogonalEdgeStyle;rounded=0;orthogonalLoop=1;jettySize=auto;html=1;" edge="1" parent="1" source="iukpTpg_DZpBxqqb1P64-2" target="iukpTpg_DZpBxqqb1P64-9">
          <mxGeometry relative="1" as="geometry" />
        </mxCell>
        <mxCell id="iukpTpg_DZpBxqqb1P64-12" style="edgeStyle=orthogonalEdgeStyle;rounded=0;orthogonalLoop=1;jettySize=auto;html=1;entryX=0.5;entryY=0;entryDx=0;entryDy=0;" edge="1" parent="1" source="iukpTpg_DZpBxqqb1P64-2" target="iukpTpg_DZpBxqqb1P64-8">
          <mxGeometry relative="1" as="geometry" />
        </mxCell>
        <mxCell id="iukpTpg_DZpBxqqb1P64-2" value="15" style="whiteSpace=wrap;html=1;aspect=fixed;" vertex="1" parent="1">
          <mxGeometry x="350" y="500" width="50" height="50" as="geometry" />
        </mxCell>
        <mxCell id="iukpTpg_DZpBxqqb1P64-3" value="14" style="whiteSpace=wrap;html=1;aspect=fixed;" vertex="1" parent="1">
          <mxGeometry x="414" y="430" width="50" height="50" as="geometry" />
        </mxCell>
        <mxCell id="iukpTpg_DZpBxqqb1P64-7" value="18" style="whiteSpace=wrap;html=1;aspect=fixed;" vertex="1" parent="1">
          <mxGeometry x="350" y="610" width="50" height="50" as="geometry" />
        </mxCell>
        <mxCell id="iukpTpg_DZpBxqqb1P64-8" value="19" style="whiteSpace=wrap;html=1;aspect=fixed;" vertex="1" parent="1">
          <mxGeometry x="290" y="610" width="50" height="50" as="geometry" />
        </mxCell>
        <mxCell id="iukpTpg_DZpBxqqb1P64-9" value="17" style="whiteSpace=wrap;html=1;aspect=fixed;" vertex="1" parent="1">
          <mxGeometry x="414" y="610" width="50" height="50" as="geometry" />
        </mxCell>
      </root>
    </mxGraphModel>
  </diagram>
</mxfile>
